# xmcd CD database file
#
# Track frame offsets:
#	150
#	16892
#	38808
#	58918
#	78973
#	95623
#	117931
#	132328
#	155633
#	175519
#	195282
#	216538
#	243546
#	266299
#	285692
#	312230
#	333648
#
# Disc length: 4684 seconds
#
# Revision: 1
# Processed by: cddbd v1.5.2PL0 Copyright (c) Steve Scherf et al.
# Submitted via: CDex 1.83
#
DISCID=f1124a11
DTITLE=Enigma - A Posteriori
DYEAR=2006
DGENRE=New Age
TTITLE0=Eppur Si Muove
TTITLE1=Feel Me Heaven
TTITLE2=Dreaming Of Andromeda
TTITLE3=Dancing With Mephisto
TTITLE4=Northern Lights
TTITLE5=Invisible Love
TTITLE6=Message From Io
TTITLE7=Hello And Welcome (New Version)
TTITLE8=20,000 Miles Over The Sea
TTITLE9=Sitting On The Moon
TTITLE10=The Alchemist
TTITLE11=Goodbye Milky Way
TTITLE12=Mea Culpa
TTITLE13=Sadness
TTITLE14=Black Moon Dance
TTITLE15=Trapt
TTITLE16=Celtic Trance
EXTD=YEAR: 2006
EXTT0=
EXTT1=
EXTT2=
EXTT3=
EXTT4=
EXTT5=
EXTT6=
EXTT7=
EXTT8=
EXTT9=
EXTT10=
EXTT11=
EXTT12=
EXTT13=
EXTT14=
EXTT15=
EXTT16=
PLAYORDER=
